<svg xmlns="http://www.w3.org/2000/svg" xmlns:xlink="http://www.w3.org/1999/xlink" width="500" zoomAndPan="magnify" viewBox="0 0 375 187.499995" height="250" preserveAspectRatio="xMidYMid meet" version="1.0"><defs><g/></defs><g fill="#000000" fill-opacity="1"><g transform="translate(19.736436, 118.417063)"><g><path d="M 2.402344 -17.335938 C 2.46875 -6.6875 9.738281 0.648438 25.644531 0.648438 C 41.488281 0.648438 48.890625 -6.753906 48.890625 -17.074219 L 48.890625 -47.398438 L 6.621094 -47.398438 L 6.621094 -41.746094 L 42.460938 -41.746094 L 42.460938 -17.335938 C 42.460938 -9.609375 37.851562 -5 25.515625 -5 C 13.503906 -5 8.894531 -9.609375 8.828125 -17.335938 Z M 2.402344 -17.335938 "/></g></g></g><g fill="#000000" fill-opacity="1"><g transform="translate(73.948339, 118.417063)"><g/></g></g><g fill="#000000" fill-opacity="1"><g transform="translate(102.515096, 118.417063)"><g><path d="M 52.71875 -26.554688 L 12.078125 -26.554688 L 12.078125 -47.398438 L 5.648438 -47.398438 L 5.648438 0 L 12.078125 0 L 12.078125 -20.90625 L 52.71875 -20.90625 L 52.71875 0 L 59.148438 0 L 59.148438 -47.398438 L 52.71875 -47.398438 Z M 52.71875 -26.554688 "/></g></g></g><g fill="#000000" fill-opacity="1"><g transform="translate(167.309682, 118.417063)"><g/></g></g><g fill="#000000" fill-opacity="1"><g transform="translate(195.876439, 118.417063)"><g><path d="M 32.851562 0.648438 C 52.527344 0.648438 62.523438 -9.347656 62.523438 -22.917969 L 62.523438 -24.476562 C 62.523438 -38.046875 52.527344 -48.046875 32.851562 -48.046875 C 13.308594 -48.046875 3.3125 -38.046875 3.3125 -24.476562 L 3.3125 -22.917969 C 3.3125 -9.347656 13.308594 0.648438 32.851562 0.648438 Z M 32.917969 -5 C 17.269531 -5 9.867188 -12.402344 9.867188 -22.984375 L 9.867188 -24.414062 C 9.867188 -34.996094 17.269531 -42.398438 32.917969 -42.398438 C 48.566406 -42.398438 55.96875 -34.996094 55.96875 -24.414062 L 55.96875 -22.984375 C 55.96875 -12.402344 48.566406 -5 32.917969 -5 Z M 32.917969 -5 "/></g></g></g><g fill="#000000" fill-opacity="1"><g transform="translate(261.709816, 118.417063)"><g/></g></g><g fill="#000000" fill-opacity="1"><g transform="translate(290.276573, 118.417063)"><g><path d="M 53.109375 -9.15625 L 12.855469 -47.398438 L 5.648438 -47.398438 L 5.648438 0 L 11.882812 0 L 11.882812 -39.863281 L 53.757812 0 L 59.34375 0 L 59.34375 -47.398438 L 53.109375 -47.398438 Z M 53.109375 -9.15625 "/></g></g></g></svg>