<svg xmlns="http://www.w3.org/2000/svg" xmlns:xlink="http://www.w3.org/1999/xlink" width="336" zoomAndPan="magnify" viewBox="0 0 252 143.999998" height="192" preserveAspectRatio="xMidYMid meet" version="1.0"><defs><clipPath id="f96eab1fd3"><path d="M 14.398438 14.398438 L 237.824219 14.398438 L 237.824219 40 L 14.398438 40 Z M 14.398438 14.398438 " clip-rule="nonzero"/></clipPath><clipPath id="bb7b289440"><path d="M 226.800781 14.398438 C 232.765625 14.398438 237.601562 20.113281 237.601562 27.15625 C 237.601562 34.203125 232.765625 39.917969 226.800781 39.917969 L 25.199219 39.917969 C 19.234375 39.917969 14.398438 34.203125 14.398438 27.15625 C 14.398438 20.113281 19.234375 14.398438 25.199219 14.398438 L 226.800781 14.398438 " clip-rule="nonzero"/></clipPath><clipPath id="d99a893eee"><path d="M 152.710938 59.242188 L 237.757812 59.242188 L 237.757812 84.890625 L 152.710938 84.890625 Z M 152.710938 59.242188 " clip-rule="nonzero"/></clipPath><clipPath id="27d7feea89"><path d="M 226.800781 59.242188 C 232.765625 59.242188 237.601562 64.953125 237.601562 72 C 237.601562 79.046875 232.765625 84.757812 226.800781 84.757812 L 163.507812 84.757812 C 157.542969 84.757812 152.710938 79.046875 152.710938 72 C 152.710938 64.953125 157.542969 59.242188 163.507812 59.242188 L 226.800781 59.242188 " clip-rule="nonzero"/></clipPath><clipPath id="d968ce4567"><path d="M 14.398438 104.082031 L 237.824219 104.082031 L 237.824219 129.734375 L 14.398438 129.734375 Z M 14.398438 104.082031 " clip-rule="nonzero"/></clipPath><clipPath id="10efb28d98"><path d="M 226.800781 104.082031 C 232.765625 104.082031 237.601562 109.796875 237.601562 116.84375 C 237.601562 123.886719 232.765625 129.601562 226.800781 129.601562 L 25.199219 129.601562 C 19.234375 129.601562 14.398438 123.886719 14.398438 116.84375 C 14.398438 109.796875 19.234375 104.082031 25.199219 104.082031 L 226.800781 104.082031 " clip-rule="nonzero"/></clipPath><clipPath id="ea9ea87f33"><path d="M 14.398438 59.242188 L 99.449219 59.242188 L 99.449219 84.890625 L 14.398438 84.890625 Z M 14.398438 59.242188 " clip-rule="nonzero"/></clipPath><clipPath id="c67c50484d"><path d="M 88.519531 59.242188 C 94.484375 59.242188 99.320312 64.953125 99.320312 72 C 99.320312 79.046875 94.484375 84.757812 88.519531 84.757812 L 25.199219 84.757812 C 19.234375 84.757812 14.398438 79.046875 14.398438 72 C 14.398438 64.953125 19.234375 59.242188 25.199219 59.242188 L 88.519531 59.242188 " clip-rule="nonzero"/></clipPath><clipPath id="6e62b96537"><path d="M 109.789062 59.242188 L 142.867188 59.242188 L 142.867188 84.890625 L 109.789062 84.890625 Z M 109.789062 59.242188 " clip-rule="nonzero"/></clipPath><clipPath id="764cfa1e19"><path d="M 131.410156 59.242188 C 137.375 59.242188 142.210938 64.953125 142.210938 72 C 142.210938 79.046875 137.375 84.757812 131.410156 84.757812 L 120.589844 84.757812 C 114.625 84.757812 109.789062 79.046875 109.789062 72 C 109.789062 64.953125 114.625 59.242188 120.589844 59.242188 L 131.410156 59.242188 " clip-rule="nonzero"/></clipPath></defs><rect x="-25.2" width="302.4" fill="#ffffff00" y="-14.4" height="172.799997" fill-opacity="1"/><rect x="-25.2" width="302.4" fill="#ffffff00" y="-14.4" height="172.799997" fill-opacity="1"/><rect x="-25.2" width="302.4" fill="#ffffff00" y="-14.4" height="172.799997" fill-opacity="1"/><g clip-path="url(#f96eab1fd3)"><g clip-path="url(#bb7b289440)"><path fill="#ba2123" d="M 14.398438 14.398438 L 237.824219 14.398438 L 237.824219 40.050781 L 14.398438 40.050781 Z M 14.398438 14.398438 " fill-opacity="1" fill-rule="nonzero"/></g></g><g clip-path="url(#d99a893eee)"><g clip-path="url(#27d7feea89)"><path fill="#e8b930" d="M 152.710938 59.242188 L 237.757812 59.242188 L 237.757812 84.890625 L 152.710938 84.890625 Z M 152.710938 59.242188 " fill-opacity="1" fill-rule="nonzero"/></g></g><g clip-path="url(#d968ce4567)"><g clip-path="url(#10efb28d98)"><path fill="#ba2123" d="M 14.398438 104.082031 L 237.824219 104.082031 L 237.824219 129.734375 L 14.398438 129.734375 Z M 14.398438 104.082031 " fill-opacity="1" fill-rule="nonzero"/></g></g><g clip-path="url(#ea9ea87f33)"><g clip-path="url(#c67c50484d)"><path fill="#e8b930" d="M 14.398438 59.242188 L 99.449219 59.242188 L 99.449219 84.890625 L 14.398438 84.890625 Z M 14.398438 59.242188 " fill-opacity="1" fill-rule="nonzero"/></g></g><g clip-path="url(#6e62b96537)"><g clip-path="url(#764cfa1e19)"><path fill="#f1f1f1" d="M 109.789062 59.242188 L 142.191406 59.242188 L 142.191406 84.890625 L 109.789062 84.890625 Z M 109.789062 59.242188 " fill-opacity="1" fill-rule="nonzero"/></g></g></svg>