<svg xmlns="http://www.w3.org/2000/svg" xmlns:xlink="http://www.w3.org/1999/xlink" width="336" zoomAndPan="magnify" viewBox="0 0 252 143.999998" height="192" preserveAspectRatio="xMidYMid meet" version="1.0"><defs><clipPath id="de3109c39a"><path d="M 117.429688 14.398438 L 238 14.398438 L 238 40 L 117.429688 40 Z M 117.429688 14.398438 " clip-rule="nonzero"/></clipPath><clipPath id="b53f743347"><path d="M 226.800781 14.398438 C 232.765625 14.398438 237.601562 20.113281 237.601562 27.15625 C 237.601562 34.203125 232.765625 39.917969 226.800781 39.917969 L 128.230469 39.917969 C 122.265625 39.917969 117.429688 34.203125 117.429688 27.15625 C 117.429688 20.113281 122.265625 14.398438 128.230469 14.398438 L 226.800781 14.398438 " clip-rule="nonzero"/></clipPath><clipPath id="2e7d258f36"><path d="M 14.398438 14.398438 L 99.449219 14.398438 L 99.449219 40 L 14.398438 40 Z M 14.398438 14.398438 " clip-rule="nonzero"/></clipPath><clipPath id="9f42ad0f91"><path d="M 88.492188 14.398438 C 94.457031 14.398438 99.289062 20.113281 99.289062 27.15625 C 99.289062 34.203125 94.457031 39.917969 88.492188 39.917969 L 25.199219 39.917969 C 19.234375 39.917969 14.398438 34.203125 14.398438 27.15625 C 14.398438 20.113281 19.234375 14.398438 25.199219 14.398438 L 88.492188 14.398438 " clip-rule="nonzero"/></clipPath><clipPath id="91745606c8"><path d="M 14.398438 104.082031 L 237.824219 104.082031 L 237.824219 129.734375 L 14.398438 129.734375 Z M 14.398438 104.082031 " clip-rule="nonzero"/></clipPath><clipPath id="e30818cf36"><path d="M 226.800781 104.082031 C 232.765625 104.082031 237.601562 109.796875 237.601562 116.839844 C 237.601562 123.886719 232.765625 129.601562 226.800781 129.601562 L 25.199219 129.601562 C 19.234375 129.601562 14.398438 123.886719 14.398438 116.839844 C 14.398438 109.796875 19.234375 104.082031 25.199219 104.082031 L 226.800781 104.082031 " clip-rule="nonzero"/></clipPath><clipPath id="0ec3f7ebf0"><path d="M 117.429688 59.242188 L 238 59.242188 L 238 84.890625 L 117.429688 84.890625 Z M 117.429688 59.242188 " clip-rule="nonzero"/></clipPath><clipPath id="eab7defa87"><path d="M 226.800781 59.242188 C 232.765625 59.242188 237.601562 64.953125 237.601562 72 C 237.601562 79.046875 232.765625 84.757812 226.800781 84.757812 L 128.230469 84.757812 C 122.265625 84.757812 117.429688 79.046875 117.429688 72 C 117.429688 64.953125 122.265625 59.242188 128.230469 59.242188 L 226.800781 59.242188 " clip-rule="nonzero"/></clipPath><clipPath id="d3b87a4403"><path d="M 14.398438 59.242188 L 99.449219 59.242188 L 99.449219 84.890625 L 14.398438 84.890625 Z M 14.398438 59.242188 " clip-rule="nonzero"/></clipPath><clipPath id="d788167b81"><path d="M 88.492188 59.242188 C 94.457031 59.242188 99.289062 64.953125 99.289062 72 C 99.289062 79.046875 94.457031 84.757812 88.492188 84.757812 L 25.199219 84.757812 C 19.234375 84.757812 14.398438 79.046875 14.398438 72 C 14.398438 64.953125 19.234375 59.242188 25.199219 59.242188 L 88.492188 59.242188 " clip-rule="nonzero"/></clipPath></defs><rect x="-25.2" width="302.4" fill="#ffffff00" y="-14.4" height="172.799997" fill-opacity="1"/><rect x="-25.2" width="302.4" fill="#ffffff00" y="-14.4" height="172.799997" fill-opacity="1"/><g clip-path="url(#de3109c39a)"><g clip-path="url(#b53f743347)"><path fill="#ba2123" d="M 117.429688 14.398438 L 237.582031 14.398438 L 237.582031 40.050781 L 117.429688 40.050781 Z M 117.429688 14.398438 " fill-opacity="1" fill-rule="nonzero"/></g></g><g clip-path="url(#2e7d258f36)"><g clip-path="url(#9f42ad0f91)"><path fill="#3c3b6e" d="M 14.398438 14.398438 L 99.449219 14.398438 L 99.449219 40.050781 L 14.398438 40.050781 Z M 14.398438 14.398438 " fill-opacity="1" fill-rule="nonzero"/></g></g><g clip-path="url(#91745606c8)"><g clip-path="url(#e30818cf36)"><path fill="#ba2123" d="M 14.398438 104.082031 L 237.824219 104.082031 L 237.824219 129.734375 L 14.398438 129.734375 Z M 14.398438 104.082031 " fill-opacity="1" fill-rule="nonzero"/></g></g><g clip-path="url(#0ec3f7ebf0)"><g clip-path="url(#eab7defa87)"><path fill="#ffffff" d="M 117.429688 59.242188 L 237.582031 59.242188 L 237.582031 84.890625 L 117.429688 84.890625 Z M 117.429688 59.242188 " fill-opacity="1" fill-rule="nonzero"/></g></g><g clip-path="url(#d3b87a4403)"><g clip-path="url(#d788167b81)"><path fill="#3c3b6e" d="M 14.398438 59.242188 L 99.449219 59.242188 L 99.449219 84.890625 L 14.398438 84.890625 Z M 14.398438 59.242188 " fill-opacity="1" fill-rule="nonzero"/></g></g></svg>